<svg width="239" height="97" xmlns="http://www.w3.org/2000/svg"><g fill="none" fill-rule="evenodd"><path d="M99.17 0v40.043H0V0h99.17ZM85.553 3.367c-7.11 0-14.459 2.526-14.459 10.823 0 4.695 3.396 6.425 6.652 7.733l.513.204c2.806 1.104 5.367 1.992 5.367 4.33 0 3.366-4.218 3.847-6.869 3.847-2.661 0-5.988-.666-7.742-1.676l-.21-.128-2.048 6.493c2.89.963 6.746 1.684 10 1.684 7.47 0 15.784-2.284 15.784-11.183 0-9.86-12.53-8.057-12.53-12.627 0-2.645 2.77-3.126 6.266-3.126 2.984 0 5.201.654 6.864 1.34l.245.103 2.048-6.373c-2.169-1.083-5.905-1.444-9.881-1.444Zm-33.859.481h-8.677L36.39 36.076h8.556l2.891-13.709H58.08l-2.891 13.71h8.675l6.748-32.229h-8.675l-2.532 12.387H49.163l2.531-12.387Zm-31.21 0H9.642l-6.87 32.228h8.195l4.459-22.246h.12l6.747 22.246h10.725l6.867-32.228h-8.192l-4.459 22.367h-.12L20.484 3.848Z" fill="#005EB8"/><path d="M17.982 56.9c-1.55-.716-3.562-1.061-5.171-1.061-4.681 0-7.268 3.154-7.268 7.253 0 4.07 2.529 7.139 6.81 7.139 1.09 0 1.952-.115 2.642-.287v-5.217h-4.252v-3.154h8.101v10.779c-2.126.574-4.338 1.032-6.492 1.032-6.492 0-11.002-3.24-11.002-10.005 0-6.851 4.193-10.693 11.002-10.693 2.327 0 4.165.316 5.888.831l-.258 3.383M27.887 70.575c1.178 0 2.098-.516 2.7-1.318.632-.833.804-1.893.804-3.04h-1.666c-1.723 0-4.28.287-4.28 2.551 0 1.262 1.063 1.807 2.442 1.807Zm-4.51-11.524c1.494-.689 3.505-1.118 5.142-1.118 4.51 0 6.377 1.863 6.377 6.22v1.892c0 1.49.03 2.609.058 3.699.028 1.118.086 2.15.172 3.296h-3.389c-.144-.774-.144-1.749-.173-2.208h-.057c-.89 1.635-2.815 2.552-4.567 2.552-2.615 0-5.171-1.576-5.171-4.387 0-2.206 1.062-3.497 2.528-4.213 1.465-.716 3.36-.86 4.97-.86h2.124c0-2.38-1.062-3.182-3.331-3.182-1.638 0-3.275.63-4.567 1.605l-.116-3.296ZM39.948 61.086h-2.844v-2.81h2.844v-2.952l3.85-1.234v4.186h3.418v2.81h-3.419v6.88c0 1.26.344 2.437 1.81 2.437.69 0 1.35-.144 1.752-.401l.115 3.038c-.804.23-1.695.344-2.844.344-3.017 0-4.682-1.863-4.682-4.788v-7.51M59.134 64.21c-.115-1.863-.976-3.468-3.13-3.468-2.155 0-3.247 1.49-3.419 3.468h6.55Zm2.585 8c-1.406.772-3.016 1.174-5.083 1.174-4.884 0-7.728-2.81-7.728-7.655 0-4.27 2.269-7.796 6.866-7.796 5.485 0 7.037 3.755 7.037 8.914H52.585c.172 2.38 1.838 3.728 4.223 3.728 1.867 0 3.475-.689 4.911-1.492v3.126ZM74.613 61.373c-1.178-.402-2.04-.631-3.446-.631-1.035 0-2.27.373-2.27 1.633 0 2.352 6.693.86 6.693 6.193 0 3.44-3.073 4.816-6.205 4.816-1.465 0-2.96-.258-4.366-.631l.23-3.153c1.206.601 2.47.975 3.791.975.977 0 2.529-.374 2.529-1.807 0-2.895-6.694-.917-6.694-6.249 0-3.182 2.787-4.586 5.803-4.586 1.81 0 2.987.286 4.194.543l-.259 2.897M78.574 51.539h3.85v8.744h.057c.977-1.434 2.643-2.35 4.654-2.35 3.505 0 5.027 2.465 5.027 5.79v9.317h-3.85v-7.884c0-1.805-.029-4.242-2.5-4.242-2.785 0-3.388 3.01-3.388 4.901v7.225h-3.85V51.54M105.399 64.21c-.115-1.863-.977-3.468-3.13-3.468-2.156 0-3.247 1.49-3.42 3.468h6.55Zm2.585 8c-1.407.772-3.017 1.174-5.084 1.174-4.883 0-7.727-2.81-7.727-7.655 0-4.27 2.268-7.796 6.865-7.796 5.486 0 7.038 3.755 7.038 8.914H98.85c.172 2.38 1.838 3.728 4.222 3.728 1.867 0 3.475-.689 4.912-1.492v3.126ZM117.259 70.575c1.178 0 2.098-.516 2.7-1.318.632-.833.805-1.893.805-3.04h-1.667c-1.723 0-4.28.287-4.28 2.551 0 1.262 1.063 1.807 2.442 1.807Zm-4.51-11.524c1.494-.689 3.505-1.118 5.142-1.118 4.51 0 6.377 1.863 6.377 6.22v1.892c0 1.49.03 2.609.058 3.699.028 1.118.086 2.15.172 3.296h-3.39c-.143-.774-.143-1.749-.172-2.208h-.057c-.89 1.635-2.815 2.552-4.567 2.552-2.614 0-5.171-1.576-5.171-4.387 0-2.206 1.062-3.497 2.528-4.213 1.465-.716 3.361-.86 4.97-.86h2.125c0-2.38-1.063-3.182-3.332-3.182-1.638 0-3.275.63-4.568 1.605l-.115-3.296ZM134.376 70.403c2.556 0 3.389-2.695 3.389-4.788 0-2.064-.977-4.701-3.447-4.701-2.499 0-3.189 2.723-3.189 4.701 0 2.035.718 4.788 3.247 4.788Zm3.533.974h-.058c-1.149 1.434-2.729 2.007-4.538 2.007-4.539 0-6.205-3.726-6.205-7.769 0-4.07 1.666-7.682 6.205-7.682 1.925 0 3.275.659 4.424 2.063h.057v-8.457h3.85V73.04h-3.735v-1.663ZM153.931 53.03h4.021v8.085h8.044V53.03h4.021v20.01h-4.021v-8.772h-8.044v8.772h-4.021V53.03M183.6 64.21c-.116-1.863-.977-3.468-3.131-3.468s-3.246 1.49-3.419 3.468h6.55Zm2.585 8c-1.407.772-3.017 1.174-5.084 1.174-4.883 0-7.728-2.81-7.728-7.655 0-4.27 2.27-7.796 6.866-7.796 5.486 0 7.038 3.755 7.038 8.914H177.05c.173 2.38 1.839 3.728 4.223 3.728 1.867 0 3.475-.689 4.912-1.492v3.126ZM195.459 70.575c1.178 0 2.097-.516 2.7-1.318.632-.833.804-1.893.804-3.04h-1.666c-1.723 0-4.28.287-4.28 2.551 0 1.262 1.063 1.807 2.442 1.807Zm-4.51-11.524c1.494-.689 3.505-1.118 5.142-1.118 4.51 0 6.377 1.863 6.377 6.22v1.892c0 1.49.03 2.609.058 3.699.028 1.118.086 2.15.172 3.296h-3.39c-.143-.774-.143-1.749-.173-2.208h-.056c-.89 1.635-2.815 2.552-4.567 2.552-2.615 0-5.171-1.576-5.171-4.387 0-2.206 1.062-3.497 2.528-4.213 1.465-.716 3.36-.86 4.97-.86h2.124c0-2.38-1.062-3.182-3.331-3.182-1.638 0-3.275.63-4.568 1.605l-.115-3.296ZM206.343 73.04h3.849V51.539h-3.849zM215.505 61.086h-2.845v-2.81h2.845v-2.952l3.849-1.234v4.186h3.418v2.81h-3.418v6.88c0 1.26.344 2.437 1.809 2.437.69 0 1.35-.144 1.752-.401l.116 3.038c-.805.23-1.695.344-2.845.344-3.016 0-4.681-1.863-4.681-4.788v-7.51M225.413 51.539h3.849v8.744h.058c.976-1.434 2.642-2.35 4.653-2.35 3.505 0 5.027 2.465 5.027 5.79v9.317h-3.85v-7.884c0-1.805-.028-4.242-2.5-4.242-2.786 0-3.388 3.01-3.388 4.901v7.225h-3.85V51.54" fill="#231F20"/><path fill="#005EB8" d="M1.416 83.442h3.29l5.09 9.968h.038v-9.968h2.564v13.329H9.126l-5.108-9.968h-.039v9.968H1.416V83.442M15.368 83.442h2.679v5.385h5.356v-5.385h2.679v13.329h-2.679v-5.844h-5.356v5.844h-2.679V83.442M36.36 85.886a6.93 6.93 0 0 0-2.717-.571c-.918 0-2.104.4-2.104 1.851 0 2.31 5.854 1.336 5.854 5.805 0 2.921-2.316 4.029-5.013 4.029-1.454 0-2.104-.19-3.425-.516l.249-2.406c.919.497 1.971.822 3.023.822 1.014 0 2.372-.516 2.372-1.719 0-2.54-5.854-1.49-5.854-5.9 0-2.98 2.315-4.067 4.668-4.067 1.148 0 2.22.153 3.196.477l-.25 2.195M45.148 83.442h7.424v2.101h-4.746v3.284h4.516v2.1h-4.516v5.844h-2.678V83.442M59.003 95.014c1.97 0 2.486-1.757 2.486-3.398 0-1.51-.803-2.922-2.486-2.922-1.665 0-2.468 1.451-2.468 2.922 0 1.622.516 3.398 2.468 3.398Zm0-8.306c2.927 0 5.166 1.966 5.166 5.213 0 2.826-1.894 5.079-5.166 5.079-3.253 0-5.147-2.253-5.147-5.08 0-3.246 2.238-5.212 5.147-5.212ZM75.23 96.77H72.8v-1.335h-.037c-.786.953-1.894 1.565-3.235 1.565-2.333 0-3.348-1.642-3.348-3.857v-6.206h2.565v5.25c0 1.204.019 2.827 1.664 2.827 1.856 0 2.257-2.004 2.257-3.265v-4.812h2.565v9.834M77.873 86.937h2.431v1.337h.038c.804-1.127 1.895-1.566 3.234-1.566 2.334 0 3.348 1.642 3.348 3.857v6.206H84.36V91.52c0-1.203-.02-2.826-1.664-2.826-1.857 0-2.258 2.005-2.258 3.265v4.812h-2.565v-9.834M93.777 95.014c1.704 0 2.258-1.795 2.258-3.19 0-1.374-.65-3.13-2.295-3.13-1.665 0-2.124 1.814-2.124 3.13 0 1.357.478 3.19 2.161 3.19Zm2.354.649h-.039C95.328 96.618 94.276 97 93.07 97c-3.022 0-4.132-2.483-4.132-5.175 0-2.711 1.11-5.117 4.132-5.117 1.283 0 2.182.439 2.947 1.375h.038V82.45h2.564v14.32h-2.487v-1.107ZM104.706 95.128c.783 0 1.396-.344 1.797-.878.422-.553.536-1.26.536-2.024h-1.109c-1.148 0-2.85.191-2.85 1.7 0 .84.707 1.202 1.626 1.202Zm-3.004-7.676c.994-.458 2.334-.744 3.424-.744 3.004 0 4.248 1.242 4.248 4.144v1.26c0 .993.02 1.738.038 2.463.02.744.058 1.431.115 2.196h-2.258c-.095-.516-.095-1.165-.114-1.471h-.039c-.593 1.088-1.874 1.7-3.042 1.7-1.741 0-3.444-1.05-3.444-2.922 0-1.47.708-2.329 1.683-2.807.977-.477 2.24-.572 3.311-.572h1.415c0-1.585-.708-2.12-2.219-2.12-1.09 0-2.18.421-3.041 1.07l-.077-2.197ZM112.745 88.809h-1.895v-1.872h1.895V84.97l2.563-.822v2.788h2.277v1.872h-2.277v4.582c0 .84.23 1.623 1.205 1.623.46 0 .9-.095 1.167-.267l.077 2.024c-.536.152-1.13.229-1.894.229-2.01 0-3.118-1.241-3.118-3.189v-5.002M119.404 96.77h2.564v-9.833h-2.564v9.834Zm0-11.627h2.564v-2.444h-2.564v2.444ZM129.184 95.014c1.97 0 2.487-1.757 2.487-3.398 0-1.51-.804-2.922-2.487-2.922-1.665 0-2.468 1.451-2.468 2.922 0 1.622.517 3.398 2.468 3.398Zm0-8.306c2.927 0 5.166 1.966 5.166 5.213 0 2.826-1.894 5.079-5.166 5.079-3.253 0-5.147-2.253-5.147-5.08 0-3.246 2.238-5.212 5.147-5.212ZM136.361 86.937h2.431v1.337h.038c.804-1.127 1.895-1.566 3.234-1.566 2.334 0 3.348 1.642 3.348 3.857v6.206h-2.565V91.52c0-1.203-.019-2.826-1.664-2.826-1.856 0-2.257 2.005-2.257 3.265v4.812h-2.565v-9.834M156.035 85.543h-3.827v-2.101h10.332v2.101h-3.826v11.228h-2.679V85.543M162.314 86.937h2.276v2.235h.039c.114-.917 1.167-2.464 2.697-2.464.25 0 .518 0 .785.076v2.577c-.23-.133-.689-.208-1.148-.208-2.086 0-2.086 2.596-2.086 4.01v3.608h-2.563v-9.834M178.752 96.77h-2.43v-1.335h-.038c-.785.953-1.894 1.565-3.234 1.565-2.334 0-3.349-1.642-3.349-3.857v-6.206h2.565v5.25c0 1.204.019 2.827 1.664 2.827 1.856 0 2.257-2.004 2.257-3.265v-4.812h2.565v9.834M187.25 89c-.785-.268-1.358-.42-2.297-.42-.688 0-1.51.247-1.51 1.088 0 1.566 4.457.572 4.457 4.124 0 2.291-2.047 3.208-4.132 3.208-.977 0-1.971-.172-2.908-.42l.153-2.1c.803.4 1.645.648 2.525.648.65 0 1.684-.248 1.684-1.203 0-1.928-4.458-.61-4.458-4.162 0-2.12 1.855-3.055 3.864-3.055 1.206 0 1.99.192 2.794.363L187.249 89M190.734 88.809h-1.895v-1.872h1.895V84.97l2.563-.822v2.788h2.277v1.872h-2.277v4.582c0 .84.23 1.623 1.206 1.623.458 0 .899-.095 1.166-.267l.077 2.024c-.536.152-1.129.229-1.894.229-2.01 0-3.118-1.241-3.118-3.189v-5.002"/></g></svg>
