<?xml version="1.0" encoding="UTF-8"?>
<svg xmlns="http://www.w3.org/2000/svg" viewBox="0 0 675.77 202.98">
  <path fill="#fff" d="M2.45 2.9h203.28v78.69H2.45z"></path>
  <path d="m203.27 10.07-4.44 13.63a34.85 34.85 0 0 0-15.17-3.13c-7.29 0-13.21 1.07-13.21 6.57 0 9.7 26.71 6.08 26.71 26.87 0 18.92-17.65 23.83-33.61 23.83a77.43 77.43 0 0 1-21.29-3.54l4.34-13.93c3.64 2.36 10.94 3.93 17 3.93 5.72 0 14.68-1.08 14.68-8.14 0-11-26.71-6.87-26.71-26.17 0-17.66 15.58-23 30.66-23 8.48 0 16.46.89 21.09 3m-52.98-1.78-14.29 68.44h-18.42l6.11-29.31H102l-6.17 29.31H77.41l14.3-68.44h18.42l-5.41 26.18h21.78l5.42-26.18Zm-65.43 0L70.33 76.65H47.45L33.07 29.29h-.2l-9.56 47.36H6L20.65 8.21h23l14.1 47.46h.19l9.62-47.46ZM211.18 0H0v85h211.18Z" fill="#005eb8"></path>
  <path d="m24.18 152.51-16-31.32H8v31.32H0v-41.88h10.32l16 31.32h.12v-31.32h8v41.88Zm33 .72c-10 0-16.14-6.84-16.14-16 0-9.9 6.72-16.38 16.14-16.38s16.2 6.42 16.2 16.38c0 9.22-6.24 16-16.2 16ZM65 136.31c0-4.92-2.64-9.18-7.8-9.18s-7.74 4.32-7.74 9.18c0 6.54 2.52 10.68 7.74 10.68S65 143 65 136.31Zm14.86 16.2v-30.9H87v7h.12c.48-3.24 3.84-7.74 8.52-7.74a7.73 7.73 0 0 1 2.4.24v8.1a8.19 8.19 0 0 0-3.6-.66c-3 0-6.54 1.62-6.54 11.22v12.72Zm41.52 0a21 21 0 0 1-5.88.72c-6.54 0-9.84-4.08-9.84-10v-15.74h-5.94v-5.88h5.94v-6.18l8-2.58v8.76h7.14v5.88h-7.1v14.34c0 3.24 1 5.16 3.84 5.16a7.1 7.1 0 0 0 3.6-.84Zm25.32 0v-17.46c0-5.64-1.68-7.92-5.22-7.92-4.74 0-7.08 4.32-7.08 10.44v14.94h-8v-45h8v18.3h.12a11.49 11.49 0 0 1 9.72-4.92c7.14 0 10.5 5 10.5 12.06v19.56Zm37.08 0v-4.2h-.12a12.87 12.87 0 0 1-10.14 4.92c-6.9 0-10.5-4.62-10.5-12.12v-19.5h8v17.64c0 6.18 2.28 7.74 5.22 7.74 4.86 0 7.08-4.5 7.08-10.44v-14.94h8v30.9Zm53.1 0v-19.26c0-4.62-1.74-6.12-4.62-6.12-4.08 0-6 3.78-6 10.26v15.12h-8v-19.26c0-4.5-1.62-6.12-4.62-6.12-4.2 0-6 4-6 10.2v15.18h-8v-30.9h7.5v4.32h.12a10.93 10.93 0 0 1 9.24-5c4.26 0 7.32 1.62 9.06 5.46 1.68-3.42 5.46-5.46 9.72-5.46 6.54 0 9.72 4 9.72 12v19.62Zm16.12 0v-45h8v18.06h.12a10.82 10.82 0 0 1 9.24-4.68c8.64 0 13 6.42 13 16.08 0 9.06-3.9 16.26-13 16.26a11.19 11.19 0 0 1-9.48-4.5h-.12v3.78ZM275 137c0-4.8-1.8-9.84-6.66-9.84-5 0-7.2 5.34-7.2 9.84 0 4.8 2 10 7.08 10s6.78-5.35 6.78-10Zm14.86 15.51v-30.9H297v7h.12c.48-3.24 3.84-7.74 8.52-7.74a7.73 7.73 0 0 1 2.4.24v8.1a8.19 8.19 0 0 0-3.6-.66c-3 0-6.54 1.62-6.54 11.22v12.72ZM313.2 116v-7.68h8V116Zm0 36.54v-30.9h8v30.9Zm35.34-.03a36.12 36.12 0 0 1-.36-4.62h-.12a11 11 0 0 1-9.54 5.34c-5.58 0-10.8-3.36-10.8-9.24 0-5.34 3.06-10.56 15.12-10.56h5v-.12c0-5.16-2.64-6.54-7-6.54a16.17 16.17 0 0 0-9.54 3.36l-.24-6.9a27.66 27.66 0 0 1 10.74-2.34c9.24 0 13.32 3.72 13.32 13v6.36c0 1.62.12 8.1.48 12.24Zm-.72-14.28h-3.54c-5.7 0-8.88 1.68-8.88 5.34 0 2.4 1.86 3.78 5.1 3.78 3.6 0 7.32-2.46 7.32-8.76Zm57.84 14.28v-18.36h-16.8v18.36h-8.4v-41.88h8.4v16.92h16.8v-16.92h8.4v41.88Zm42.17-1.74a21.11 21.11 0 0 1-10.55 2.46c-10.26 0-16.2-5.88-16.2-16 0-8.64 4.5-16.32 14.34-16.32 10.49 0 14.69 6.48 14.69 18.66h-21.35c.36 4.86 3.66 7.8 8.88 7.8a20.81 20.81 0 0 0 10.19-3.12Zm-5.4-16.77c-.29-4.44-2.39-7.26-6.59-7.26-4 0-6.66 2.64-7.08 7.26Zm32.82 18.51a38 38 0 0 1-.36-4.62h-.12a11 11 0 0 1-9.53 5.34c-5.58 0-10.8-3.36-10.8-9.24 0-5.34 3.06-10.56 15.12-10.56h5v-.12c0-5.16-2.65-6.54-7-6.54a16.17 16.17 0 0 0-9.54 3.36l-.24-6.9a27.66 27.66 0 0 1 10.74-2.34c9.23 0 13.31 3.72 13.31 13v6.36c0 1.62.12 8.1.48 12.24Zm-.71-14.28H471c-5.69 0-8.87 1.68-8.87 5.34 0 2.4 1.86 3.78 5.1 3.78 3.59 0 7.32-2.46 7.32-8.76ZM490 152.51v-45h8v45Zm34.81 0a20.9 20.9 0 0 1-5.88.72c-6.53 0-9.83-4.08-9.83-10v-15.74h-5.94v-5.88h5.94v-6.18l8-2.58v8.76h7.13v5.88h-7.13v14.34c0 3.24 1 5.16 3.83 5.16a7.17 7.17 0 0 0 3.61-.84Zm25.32 0v-17.46c0-5.64-1.68-7.92-5.22-7.92-4.74 0-7.08 4.32-7.08 10.44v14.94h-8v-45h8v18.3h.17a11.49 11.49 0 0 1 9.72-4.92c7.14 0 10.5 5 10.5 12.06v19.56Zm37.62-.3a26.06 26.06 0 0 1-8 1c-9.66 0-15.3-6.24-15.3-16.32 0-9.24 5.52-16 15-16a26.31 26.31 0 0 1 7.74 1l-.72 6.36a12.18 12.18 0 0 0-5.4-1.14c-5 0-8.22 4-8.22 9.78 0 6 2.94 10.08 8.34 10.08a17 17 0 0 0 6.18-1.44Zm24.18.3a36.12 36.12 0 0 1-.36-4.62h-.12a11 11 0 0 1-9.54 5.34c-5.58 0-10.8-3.36-10.8-9.24 0-5.34 3.06-10.56 15.12-10.56h5v-.12c0-5.16-2.64-6.54-7-6.54a16.17 16.17 0 0 0-9.54 3.36l-.24-6.9a27.66 27.66 0 0 1 10.74-2.34c9.24 0 13.32 3.72 13.32 13v6.36c0 1.62.12 8.1.48 12.24Zm-.72-14.28h-3.54c-5.7 0-8.88 1.68-8.88 5.34 0 2.4 1.86 3.78 5.1 3.78 3.6 0 7.32-2.46 7.32-8.76Zm15.42 14.28v-30.9h7.14v7h.12c.48-3.24 3.84-7.74 8.52-7.74a7.73 7.73 0 0 1 2.4.24v8.1a8.19 8.19 0 0 0-3.6-.66c-3 0-6.54 1.62-6.54 11.22v12.72Zm46.86-1.74a21.15 21.15 0 0 1-10.56 2.46c-10.26 0-16.2-5.88-16.2-16 0-8.64 4.5-16.32 14.34-16.32 10.5 0 14.7 6.48 14.7 18.66h-21.36c.36 4.86 3.66 7.8 8.88 7.8a20.81 20.81 0 0 0 10.2-3.12Zm-5.4-16.77c-.3-4.44-2.4-7.26-6.6-7.26-4 0-6.66 2.64-7.08 7.26Z"></path>
  <path d="M16.13 202.5 5.45 181.63h-.08v20.87H0v-27.91h6.89l10.64 20.87h.08v-20.87H23v27.91Zm29.87 0v-12.24H34.77v12.24h-5.6v-27.91h5.6v11.27H46v-11.27h5.6v27.91Zm12.09-5.64a13.52 13.52 0 0 0 6.32 1.72c2 0 5-1 5-3.6 0-2.12-1.88-3-4.64-4.12-3.72-1.44-7.6-3-7.6-8.23 0-6 4.52-8.52 9.8-8.52a21 21 0 0 1 6.64 1l-.52 4.6a14.49 14.49 0 0 0-5.68-1.2c-2.08 0-4.4 1-4.4 3.87 0 2.12 2.4 2.92 4.72 3.84 3.76 1.4 7.52 3.12 7.52 8.32 0 5.4-3.84 8.44-10.52 8.44a24.74 24.74 0 0 1-7.12-1.08Zm33.32 5.64v-27.91h15.52V179H97v6.87h9.44v4.4H97v12.23Zm28.96.5c-6.64 0-10.76-4.56-10.76-10.64 0-6.6 4.48-10.92 10.76-10.92s10.8 4.28 10.8 10.92c0 6.1-4.17 10.64-10.8 10.64Zm5.2-11.28c0-3.28-1.76-6.11-5.2-6.11s-5.16 2.87-5.16 6.11c0 4.36 1.68 7.12 5.16 7.12s5.2-2.7 5.2-7.14Zm23.64 10.78v-2.8h-.08a8.58 8.58 0 0 1-6.76 3.28c-4.6 0-7-3.08-7-8.08v-13h5.36v11.75c0 4.12 1.52 5.16 3.48 5.16 3.24 0 4.72-3 4.72-7v-10h5.36v20.69Zm24.16 0v-11.56c0-3.08-.64-5.35-3.48-5.35-3.4 0-4.72 3.27-4.72 6.91v10h-5.36v-20.59h5.08v2.8h.11a7.68 7.68 0 0 1 6.76-3.29c4.72 0 7 3.25 7 8.08v13Zm24.63 0v-2.32h-.08a7.65 7.65 0 0 1-6.32 2.8c-6.28 0-8.64-5.12-8.64-10.84 0-6.24 2.72-10.72 8.64-10.72a7.32 7.32 0 0 1 6.16 2.88h.08v-11.79h5.36v30Zm-.2-10.36c0-2.88-1.36-6.55-4.8-6.55-3.24 0-4.44 3.35-4.44 6.55 0 2.92 1 6.68 4.52 6.68s4.69-3.68 4.69-6.68Zm23.45 10.36a24.08 24.08 0 0 1-.24-3.08h-.08a7.34 7.34 0 0 1-6.36 3.56c-3.72 0-7.2-2.24-7.2-6.16 0-3.56 2-7 10.08-7h3.32v-.08c0-3.44-1.76-4.36-4.64-4.36a10.78 10.78 0 0 0-6.36 2.24l-.16-4.59a18.44 18.44 0 0 1 7.16-1.57c6.16 0 8.88 2.49 8.88 8.68v4.24c0 1.08.08 5.4.32 8.16Zm-.48-9.52h-2.36c-3.8 0-5.92 1.12-5.92 3.56 0 1.6 1.24 2.52 3.4 2.52 2.4 0 4.88-1.64 4.88-5.84Zm22.4 9.52a14 14 0 0 1-3.92.48c-4.36 0-6.56-2.72-6.56-6.68v-10.48h-4v-3.91h4v-4.12l5.36-1.72v5.84h4.76v3.91h-4.76v9.56c0 2.16.68 3.44 2.56 3.44a4.73 4.73 0 0 0 2.4-.56Zm3.44-24.35V173H252v5.12Zm0 24.35v-20.59H252v20.59Zm20.44.5c-6.64 0-10.76-4.56-10.76-10.64 0-6.6 4.48-10.92 10.76-10.92s10.8 4.28 10.8 10.92c0 6.1-4.16 10.64-10.8 10.64Zm5.2-11.28c0-3.28-1.76-6.11-5.2-6.11s-5.16 2.87-5.16 6.11c0 4.36 1.68 7.12 5.16 7.12s5.2-2.7 5.2-7.14Zm23.36 10.78v-11.56c0-3.08-.64-5.35-3.48-5.35-3.4 0-4.72 3.27-4.72 6.91v10h-5.36v-20.59h5.08v2.8h.08a7.68 7.68 0 0 1 6.76-3.29c4.72 0 7 3.25 7 8.08v13Zm27.56 0V179h-8v-4.4h21.6v4.4h-8v23.5Zm13.12 0v-20.59h4.76v4.67h.08c.32-2.16 2.56-5.16 5.68-5.16a5 5 0 0 1 1.6.17V187a5.46 5.46 0 0 0-2.4-.44c-2 0-4.36 1.08-4.36 7.48v8.48Zm29.28 0v-2.8h-.08a8.58 8.58 0 0 1-6.76 3.28c-4.6 0-7-3.08-7-8.08v-13h5.36v11.75c0 4.12 1.52 5.16 3.48 5.16 3.24 0 4.72-3 4.72-7v-10h5.36v20.69Zm9.8-4.8a11.77 11.77 0 0 0 5.28 1.36c1.44 0 3.52-.56 3.52-2.52 0-1.72-1.68-2.24-3.84-2.84-3.6-1-5.48-2.44-5.48-5.88 0-4.15 3.48-6.4 8.12-6.4a23.79 23.79 0 0 1 5.8.77l-.36 4a13.32 13.32 0 0 0-4.76-.88c-1.88 0-3.2.76-3.2 2.28 0 1.16 1.12 1.72 3.56 2.4 3.84 1.08 5.76 2.8 5.76 6.24 0 4.52-3.88 6.72-8.68 6.72a24.23 24.23 0 0 1-6-.88Zm30.8 4.8a14 14 0 0 1-3.92.48c-4.36 0-6.56-2.72-6.56-6.68v-10.48h-4v-3.91h4v-4.12l5.36-1.72v5.84h4.76v3.91h-4.76v9.56c0 2.16.68 3.44 2.56 3.44a4.73 4.73 0 0 0 2.4-.56Z" fill="#005eb8"></path>
</svg>
