<?xml version="1.0" encoding="utf-8"?>
<!-- Generator: Adobe Illustrator 25.2.1, SVG Export Plug-In . SVG Version: 6.00 Build 0)  -->
<svg version="1.1" id="Layer_1" xmlns="http://www.w3.org/2000/svg" xmlns:xlink="http://www.w3.org/1999/xlink" x="0px" y="0px"
	 viewBox="0 0 232 82" style="enable-background:new 0 0 232 82;" xml:space="preserve">
<style type="text/css">
	.st0{fill-rule:evenodd;clip-rule:evenodd;fill:#005EB8;}
	.st1{fill-rule:evenodd;clip-rule:evenodd;}
</style>
<g id="Symbols">
	<g id="Headers_x2F_Header" transform="translate(-121.000000, -93.000000)">
		<g id="Group" transform="translate(121.000000, 93.000000)">
			<path id="Fill-33" class="st0" d="M81.8,4.1L80,9.5c-1.4-0.7-3.4-1.3-6.1-1.3c-2.9,0-5.3,0.4-5.3,2.6c0,3.9,10.7,2.4,10.7,10.8
				c0,7.6-7.1,9.6-13.5,9.6c-2.9,0-6.1-0.7-8.6-1.4l1.7-5.6c1.5,0.9,4.4,1.6,6.8,1.6c2.3,0,5.9-0.4,5.9-3.3
				c0-4.4-10.7-2.8-10.7-10.5c0-7.1,6.3-9.2,12.3-9.2C76.7,2.8,79.9,3.2,81.8,4.1L81.8,4.1z M60.5,3.3l-5.8,27.5h-7.4L49.8,19H41
				l-2.5,11.8h-7.4l5.7-27.5h7.4l-2.2,10.5h8.8l2.2-10.5H60.5z M34.2,3.3l-5.9,27.5h-9.2l-5.8-19.1h-0.1L9.4,30.8h-7L8.3,3.3h9.2
				l5.7,19.1h0.1l3.9-19.1H34.2z M0,34.2h84.9V0H0V34.2z"/>
			<path id="Fill-36" class="st1" d="M20.1,61.6c-1.3,0-2.4-0.3-3.4-0.8c-1-0.6-1.7-1.3-2.3-2.3c-0.5-1-0.8-2.1-0.8-3.3
				c0-1.3,0.3-2.5,0.8-3.5c0.6-1,1.3-1.8,2.3-2.3c1-0.5,2.1-0.8,3.4-0.8c1.3,0,2.4,0.3,3.4,0.8c1,0.5,1.8,1.3,2.3,2.3
				c0.6,1,0.8,2.1,0.8,3.5c0,1.2-0.3,2.3-0.8,3.3c-0.5,1-1.3,1.7-2.3,2.3C22.5,61.4,21.4,61.6,20.1,61.6 M23.2,54.8
				c0-1-0.3-1.9-0.8-2.6c-0.5-0.7-1.3-1.1-2.3-1.1c-1,0-1.7,0.4-2.3,1.1c-0.6,0.7-0.8,1.6-0.8,2.6c0,1.4,0.3,2.4,0.8,3.2
				c0.5,0.8,1.3,1.1,2.3,1.1c1,0,1.8-0.4,2.3-1.1C22.9,57.2,23.2,56.2,23.2,54.8"/>
			<path id="Fill-37" class="st1" d="M37.4,59.7c-0.5,0.6-1.1,1.1-1.8,1.5c-0.7,0.3-1.4,0.5-2.2,0.5c-1.4,0-2.4-0.4-3.1-1.3
				c-0.7-0.9-1.1-2.1-1.1-3.6v-7.8h3.2V56c0,1.1,0.2,1.9,0.5,2.4c0.4,0.5,0.9,0.7,1.6,0.7c0.9,0,1.6-0.4,2.1-1.2
				c0.5-0.8,0.7-1.8,0.7-3v-6h3.2v12.4h-3.1L37.4,59.7L37.4,59.7"/>
			<path id="Fill-38" class="st1" d="M48.9,61.6c-1.3,0-2.3-0.4-2.9-1.1c-0.7-0.7-1-1.7-1-2.9v-6.3h-2.4v-2.4h2.4v-2.5l3.2-1v3.5H51
				v2.4h-2.9V57c0,0.7,0.1,1.2,0.4,1.5c0.2,0.4,0.6,0.5,1.2,0.5c0.6,0,1.1-0.1,1.4-0.3l0.1,2.6C50.6,61.5,49.8,61.6,48.9,61.6"/>
			<path id="Fill-39" class="st1" d="M59.3,51.1c-0.9,0-1.6,0.4-2.1,1.1c-0.5,0.8-0.7,1.8-0.7,3.1v6h-3.2V43.2h3.2v7.4h0
				c0.4-0.6,0.9-1.1,1.6-1.4c0.7-0.4,1.4-0.5,2.3-0.5c1.4,0,2.4,0.4,3.1,1.3c0.7,0.9,1.1,2.1,1.1,3.5v7.9h-3.2v-7
				c0-1.1-0.2-1.9-0.5-2.4C60.6,51.4,60.1,51.1,59.3,51.1"/>
			<polyline id="Fill-40" class="st1" points="73.2,47.1 73.2,44.5 86.3,44.5 86.3,47.1 81.4,47.1 81.4,61.3 78.1,61.3 78.1,47.1 
				73.2,47.1 			"/>
			<path id="Fill-41" class="st1" d="M91.2,61.6c-2.1,0-3.7-0.6-4.8-1.7c-1.1-1.1-1.7-2.7-1.7-4.8c0-1.2,0.2-2.3,0.6-3.3
				c0.4-1,1.1-1.8,1.9-2.4c0.9-0.6,1.9-0.9,3.2-0.9c2.1,0,3.6,0.6,4.5,1.9c0.9,1.2,1.4,3.1,1.4,5.6h-8.6c0.1,1,0.4,1.7,1.1,2.3
				c0.6,0.6,1.5,0.8,2.5,0.8c0.7,0,1.4-0.1,2.1-0.3c0.7-0.2,1.4-0.5,2-0.9v2.6C94.2,61.3,92.8,61.6,91.2,61.6 M90.6,51
				c-0.8,0-1.5,0.3-2,0.8c-0.5,0.5-0.8,1.2-0.9,2.2h5.5c-0.1-0.9-0.3-1.6-0.8-2.1C92,51.2,91.4,51,90.6,51"/>
			<path id="Fill-42" class="st1" d="M104.6,61.6c-2.1,0-3.7-0.6-4.8-1.7c-1.1-1.1-1.7-2.7-1.7-4.8c0-1.2,0.2-2.3,0.6-3.3
				c0.4-1,1.1-1.8,1.9-2.4c0.9-0.6,1.9-0.9,3.2-0.9c2.1,0,3.6,0.6,4.5,1.9c0.9,1.2,1.4,3.1,1.4,5.6h-8.6c0.1,1,0.4,1.7,1.1,2.3
				c0.6,0.6,1.5,0.8,2.5,0.8c0.7,0,1.4-0.1,2.1-0.3c0.7-0.2,1.4-0.5,2-0.9v2.6C107.6,61.3,106.2,61.6,104.6,61.6 M104,51
				c-0.8,0-1.5,0.3-2,0.8c-0.5,0.5-0.8,1.2-0.9,2.2h5.5c-0.1-0.9-0.3-1.6-0.8-2.1C105.5,51.2,104.8,51,104,51"/>
			<path id="Fill-43" class="st1" d="M115,59.3c0.5,0,1-0.1,1.5-0.4c0.4-0.2,0.7-0.6,0.7-1.2c0-0.4-0.2-0.8-0.5-1
				c-0.4-0.3-1-0.5-1.8-0.7c-1.2-0.3-2-0.7-2.5-1.3c-0.5-0.5-0.8-1.3-0.8-2.3c0-1.2,0.5-2.2,1.4-2.8c0.9-0.7,2.1-1,3.5-1
				c1,0,2.2,0.2,3.5,0.5l-0.2,2.4c-0.6-0.2-1.1-0.3-1.5-0.4c-0.4-0.1-0.9-0.1-1.4-0.1c-0.6,0-1,0.1-1.4,0.4c-0.4,0.2-0.5,0.6-0.5,1
				c0,0.3,0.2,0.6,0.5,0.8c0.3,0.2,0.9,0.4,1.7,0.6c1.2,0.3,2.1,0.8,2.6,1.4c0.6,0.6,0.8,1.4,0.8,2.4c0,1.3-0.5,2.3-1.5,3
				c-1,0.7-2.2,1-3.8,1c-1.1,0-2.3-0.2-3.6-0.5l0.2-2.7C112.9,59,114,59.3,115,59.3"/>
			<polyline id="Fill-44" class="st1" points="133.4,54 133.4,61.3 130,61.3 130,44.5 133.4,44.5 133.4,51.3 140.1,51.3 140.1,44.5 
				143.5,44.5 143.5,61.3 140.1,61.3 140.1,54 133.4,54 			"/>
			<path id="Fill-45" class="st1" d="M152.8,61.6c-1.3,0-2.4-0.3-3.4-0.8c-1-0.6-1.7-1.3-2.3-2.3c-0.5-1-0.8-2.1-0.8-3.3
				c0-1.3,0.3-2.5,0.8-3.5c0.6-1,1.3-1.8,2.3-2.3c1-0.5,2.1-0.8,3.4-0.8c1.3,0,2.4,0.3,3.4,0.8c1,0.5,1.8,1.3,2.3,2.3
				c0.6,1,0.8,2.1,0.8,3.5c0,1.2-0.3,2.3-0.8,3.3c-0.5,1-1.3,1.7-2.3,2.3C155.3,61.4,154.1,61.6,152.8,61.6 M156,54.8
				c0-1-0.3-1.9-0.8-2.6c-0.5-0.7-1.3-1.1-2.3-1.1c-1,0-1.7,0.4-2.3,1.1c-0.6,0.7-0.8,1.6-0.8,2.6c0,1.4,0.3,2.4,0.8,3.2
				c0.5,0.8,1.3,1.1,2.3,1.1c1,0,1.8-0.4,2.3-1.1C155.7,57.2,156,56.2,156,54.8"/>
			<path id="Fill-46" class="st1" d="M164.6,59.3c0.5,0,1-0.1,1.5-0.4c0.4-0.2,0.7-0.6,0.7-1.2c0-0.4-0.2-0.8-0.5-1
				c-0.4-0.3-1-0.5-1.8-0.7c-1.2-0.3-2-0.7-2.5-1.3c-0.5-0.5-0.8-1.3-0.8-2.3c0-1.2,0.5-2.2,1.4-2.8c0.9-0.7,2.1-1,3.5-1
				c1,0,2.2,0.2,3.5,0.5l-0.2,2.4c-0.6-0.2-1.1-0.3-1.5-0.4s-0.9-0.1-1.4-0.1c-0.6,0-1,0.1-1.4,0.4c-0.4,0.2-0.5,0.6-0.5,1
				c0,0.3,0.2,0.6,0.5,0.8c0.3,0.2,0.9,0.4,1.7,0.6c1.2,0.3,2.1,0.8,2.6,1.4c0.6,0.6,0.8,1.4,0.8,2.4c0,1.3-0.5,2.3-1.5,3
				c-1,0.7-2.2,1-3.8,1c-1.1,0-2.3-0.2-3.6-0.5l0.2-2.7C162.5,59,163.6,59.3,164.6,59.3"/>
			<path id="Fill-47" class="st1" d="M175.7,48.9v1.8h0c0.8-1.4,2.1-2.1,3.9-2.1c1.7,0,3,0.6,3.9,1.8c0.9,1.2,1.3,2.7,1.3,4.7
				c0,1.9-0.4,3.5-1.3,4.7c-0.9,1.2-2.2,1.8-4,1.8c-0.8,0-1.5-0.1-2.1-0.4c-0.5-0.3-1.1-0.7-1.6-1.3h0v6.5h-3.2V48.9H175.7z
				 M181.4,55.1c0-1-0.2-2-0.7-2.8c-0.4-0.8-1.1-1.2-2-1.2c-0.7,0-1.2,0.2-1.6,0.6c-0.4,0.4-0.8,0.9-1,1.5c-0.2,0.6-0.3,1.2-0.3,1.8
				c0,1.1,0.2,2,0.7,2.8c0.5,0.8,1.2,1.2,2.1,1.2c0.9,0,1.6-0.4,2.1-1.2C181.2,57.1,181.4,56.2,181.4,55.1L181.4,55.1z"/>
			<path id="Fill-48" class="st1" d="M187.4,46.6h3.2v-3.1h-3.2V46.6z M187.4,61.3h3.2V48.9h-3.2V61.3z"/>
			<path id="Fill-49" class="st1" d="M199.1,61.6c-1.3,0-2.3-0.4-2.9-1.1c-0.7-0.7-1-1.7-1-2.9v-6.3h-2.4v-2.4h2.4v-2.5l3.2-1v3.5
				h2.9v2.4h-2.9V57c0,0.7,0.1,1.2,0.4,1.5c0.2,0.4,0.6,0.5,1.2,0.5c0.6,0,1.1-0.1,1.4-0.3l0.1,2.6C200.8,61.5,200,61.6,199.1,61.6"
				/>
			<path id="Fill-50" class="st1" d="M210.9,59.5L210.9,59.5c-0.4,0.7-0.9,1.2-1.6,1.6c-0.7,0.4-1.5,0.6-2.2,0.6
				c-0.8,0-1.5-0.1-2.1-0.4c-0.7-0.3-1.2-0.7-1.6-1.3c-0.4-0.6-0.6-1.2-0.6-2c0-1.4,0.5-2.4,1.5-3.1c1-0.7,2.5-1.1,4.6-1.1h2v0
				c0-1-0.2-1.7-0.7-2.1c-0.5-0.4-1.2-0.6-2.1-0.6c-0.7,0-1.3,0.1-2,0.4c-0.7,0.2-1.3,0.6-1.8,1l-0.1-2.8c0.6-0.3,1.3-0.5,2.1-0.7
				c0.8-0.2,1.5-0.3,2.2-0.3c1.9,0,3.2,0.4,4.1,1.2c0.8,0.8,1.3,2.2,1.3,4v2.6c0,0.5,0,1.3,0,2.3c0,1,0.1,1.9,0.1,2.6H211
				C211,61.1,210.9,60.5,210.9,59.5 M205.7,57.7c0,0.5,0.2,0.9,0.5,1.1c0.4,0.3,0.9,0.4,1.5,0.4c0.8,0,1.5-0.3,2.1-0.9
				c0.6-0.6,0.9-1.5,0.9-2.6v-0.1h-1.4C206.9,55.6,205.7,56.3,205.7,57.7"/>
			<polyline id="Fill-54" class="st0" points="20.4,70.2 20.4,74.8 15.9,74.8 15.9,70.2 13.6,70.2 13.6,81.5 15.9,81.5 15.9,76.5 
				20.4,76.5 20.4,81.5 22.7,81.5 22.7,70.2 20.4,70.2 			"/>
			<path id="Fill-55" class="st0" d="M27.8,79.9c0.5,0,0.9-0.1,1.4-0.4c0.4-0.2,0.6-0.6,0.6-1.1c0-0.4-0.2-0.7-0.5-0.9
				c-0.3-0.2-0.8-0.5-1.4-0.7c-0.7-0.3-1.2-0.5-1.6-0.7c-0.4-0.2-0.7-0.6-1-1c-0.3-0.4-0.4-1-0.4-1.6c0-1.1,0.4-2,1.1-2.6
				c0.7-0.6,1.7-0.9,2.8-0.9c1,0,1.9,0.1,2.7,0.4l-0.2,1.9c-0.8-0.3-1.5-0.5-2.3-0.5c-0.5,0-0.9,0.1-1.2,0.4
				c-0.3,0.3-0.5,0.6-0.5,1.2c0,0.3,0.1,0.5,0.3,0.7c0.2,0.2,0.4,0.3,0.6,0.4c0.2,0.1,0.6,0.3,1,0.4c0.6,0.2,1.2,0.5,1.6,0.7
				c0.4,0.2,0.8,0.6,1,1c0.3,0.4,0.4,1,0.4,1.6c0,1.1-0.4,1.9-1.1,2.5c-0.7,0.6-1.8,0.9-3.1,0.9c-0.5,0-1,0-1.3-0.1
				c-0.4-0.1-0.9-0.2-1.5-0.3l0.2-2C26.1,79.6,27,79.9,27.8,79.9"/>
			<polyline id="Fill-56" class="st0" points="38.7,70.2 38.7,81.5 40.9,81.5 40.9,76.5 44.7,76.5 44.7,74.8 40.9,74.8 40.9,72 
				44.9,72 44.9,70.2 38.7,70.2 			"/>
			<path id="Fill-57" class="st0" d="M50.3,81.6c-0.9,0-1.6-0.2-2.3-0.6c-0.7-0.4-1.2-0.9-1.5-1.5c-0.4-0.6-0.5-1.4-0.5-2.2
				c0-0.9,0.2-1.6,0.6-2.3c0.4-0.7,0.9-1.2,1.5-1.5c0.7-0.4,1.4-0.5,2.2-0.5c0.8,0,1.6,0.2,2.2,0.5c0.7,0.4,1.2,0.9,1.5,1.5
				c0.4,0.7,0.6,1.4,0.6,2.3c0,0.8-0.2,1.5-0.5,2.2c-0.4,0.6-0.9,1.2-1.5,1.5C52,81.5,51.2,81.6,50.3,81.6 M52.4,77.1
				c0-0.7-0.2-1.3-0.5-1.8c-0.4-0.5-0.9-0.7-1.5-0.7c-0.6,0-1.2,0.2-1.5,0.7c-0.4,0.5-0.6,1.1-0.6,1.7c0,0.9,0.2,1.6,0.5,2.1
				c0.3,0.5,0.9,0.8,1.6,0.8c0.7,0,1.2-0.2,1.6-0.7C52.2,78.7,52.4,78,52.4,77.1"/>
			<path id="Fill-58" class="st0" d="M61.9,80.3c-0.4,0.4-0.8,0.8-1.2,1c-0.5,0.2-1,0.3-1.5,0.3c-0.9,0-1.6-0.3-2.1-0.9
				c-0.5-0.6-0.7-1.4-0.7-2.4v-5.2h2.2v4.7c0,0.8,0.1,1.3,0.4,1.6c0.2,0.3,0.6,0.5,1,0.5c0.6,0,1.1-0.3,1.4-0.8
				c0.3-0.5,0.5-1.2,0.5-2v-4H64v8.3h-2L61.9,80.3L61.9,80.3"/>
			<path id="Fill-59" class="st0" d="M70.2,74.6c-0.6,0-1.1,0.3-1.4,0.8c-0.3,0.5-0.5,1.2-0.5,2v4h-2.2v-8.3h2v1.1h0
				c0.6-0.9,1.5-1.3,2.7-1.3c0.9,0,1.6,0.3,2.1,0.9c0.5,0.6,0.7,1.4,0.7,2.4v5.2h-2.2v-4.6c0-0.8-0.1-1.3-0.3-1.6
				C71.1,74.8,70.7,74.6,70.2,74.6"/>
			<path id="Fill-60" class="st0" d="M81.5,80.5c-0.6,0.8-1.4,1.1-2.5,1.1c-1.2,0-2-0.4-2.6-1.2c-0.6-0.8-0.9-1.9-0.9-3.1
				c0-1.3,0.3-2.4,0.9-3.1C77,73.4,77.8,73,79,73c0.5,0,1,0.1,1.4,0.3c0.4,0.2,0.8,0.5,1.1,0.9h0v-4.7h2.2v12.1h-2.1L81.5,80.5
				L81.5,80.5z M81.5,77.3c0-0.4-0.1-0.8-0.2-1.2c-0.1-0.4-0.4-0.7-0.6-1c-0.3-0.3-0.6-0.4-1.1-0.4c-0.6,0-1,0.3-1.3,0.8
				c-0.3,0.5-0.5,1.1-0.5,1.9c0,0.7,0.1,1.3,0.4,1.9c0.3,0.5,0.8,0.8,1.4,0.8c0.6,0,1.1-0.3,1.4-0.8C81.3,78.6,81.5,78,81.5,77.3
				L81.5,77.3z"/>
			<path id="Fill-61" class="st0" d="M90.8,80.2L90.8,80.2c-0.3,0.4-0.6,0.8-1.1,1c-0.5,0.3-1,0.4-1.5,0.4c-0.5,0-1-0.1-1.4-0.3
				c-0.4-0.2-0.8-0.5-1.1-0.9c-0.3-0.4-0.4-0.8-0.4-1.3c0-0.9,0.3-1.6,1-2.1c0.7-0.5,1.7-0.7,3.1-0.7h1.3v0c0-0.7-0.2-1.1-0.5-1.4
				c-0.3-0.3-0.8-0.4-1.4-0.4c-0.4,0-0.9,0.1-1.3,0.2c-0.4,0.2-0.9,0.4-1.2,0.7l-0.1-1.9c0.4-0.2,0.9-0.3,1.4-0.5
				c0.5-0.1,1-0.2,1.5-0.2c1.3,0,2.2,0.3,2.7,0.8c0.6,0.5,0.8,1.4,0.8,2.7v1.7c0,0.4,0,0.9,0,1.6c0,0.7,0.1,1.2,0.1,1.7h-1.9
				C90.9,81.3,90.8,80.9,90.8,80.2 M87.4,79.1c0,0.3,0.1,0.6,0.4,0.7c0.2,0.2,0.6,0.3,1,0.3c0.5,0,1-0.2,1.4-0.6
				c0.4-0.4,0.6-1,0.6-1.8v-0.1h-0.9C88.2,77.6,87.4,78.1,87.4,79.1"/>
			<path id="Fill-62" class="st0" d="M98.1,81.6c-0.9,0-1.5-0.2-2-0.7c-0.5-0.5-0.7-1.1-0.7-2v-4.2h-1.6v-1.6h1.6v-1.7l2.2-0.7v2.3
				h1.9v1.6h-1.9v3.8c0,0.5,0.1,0.8,0.2,1c0.2,0.2,0.4,0.4,0.8,0.4c0.4,0,0.7-0.1,1-0.2l0.1,1.7C99.3,81.6,98.7,81.6,98.1,81.6"/>
			<path id="Fill-63" class="st0" d="M101.1,71.7h2.2v-2.1h-2.2V71.7z M101.1,81.5h2.2v-8.3h-2.2V81.5z"/>
			<path id="Fill-64" class="st0" d="M109.3,81.6c-0.9,0-1.6-0.2-2.3-0.6c-0.7-0.4-1.2-0.9-1.5-1.5c-0.4-0.6-0.5-1.4-0.5-2.2
				c0-0.9,0.2-1.6,0.6-2.3c0.4-0.7,0.9-1.2,1.5-1.5c0.7-0.4,1.4-0.5,2.2-0.5c0.8,0,1.6,0.2,2.2,0.5c0.7,0.4,1.2,0.9,1.5,1.5
				c0.4,0.7,0.6,1.4,0.6,2.3c0,0.8-0.2,1.5-0.5,2.2c-0.4,0.6-0.9,1.2-1.5,1.5C111,81.5,110.2,81.6,109.3,81.6 M111.4,77.1
				c0-0.7-0.2-1.3-0.5-1.8c-0.4-0.5-0.9-0.7-1.5-0.7c-0.6,0-1.2,0.2-1.5,0.7c-0.4,0.5-0.6,1.1-0.6,1.7c0,0.9,0.2,1.6,0.5,2.1
				c0.3,0.5,0.9,0.8,1.6,0.8c0.7,0,1.2-0.2,1.6-0.7C111.2,78.7,111.4,78,111.4,77.1"/>
			<path id="Fill-65" class="st0" d="M119.4,74.6c-0.6,0-1.1,0.3-1.4,0.8c-0.3,0.5-0.5,1.2-0.5,2v4h-2.2v-8.3h2v1.1h0
				c0.6-0.9,1.5-1.3,2.7-1.3c0.9,0,1.6,0.3,2.1,0.9c0.5,0.6,0.7,1.4,0.7,2.4v5.2h-2.2v-4.6c0-0.8-0.1-1.3-0.3-1.6
				C120.3,74.8,119.9,74.6,119.4,74.6"/>
			<polyline id="Fill-66" class="st0" points="128.7,70.2 128.7,72 131.9,72 131.9,81.5 134.2,81.5 134.2,72 137.4,72 137.4,70.2 
				128.7,70.2 			"/>
			<path id="Fill-67" class="st0" d="M139.1,73.2V75h0c0-0.3,0.2-0.6,0.4-0.9c0.2-0.3,0.5-0.6,0.8-0.8c0.3-0.2,0.7-0.3,1.1-0.3
				c0.3,0,0.5,0,0.6,0.1v2.2c-0.2-0.1-0.5-0.2-1-0.2c-0.6,0-1,0.2-1.3,0.7c-0.3,0.5-0.5,1.2-0.5,2.3v3.4h-2.2v-8.3H139.1"/>
			<path id="Fill-68" class="st0" d="M148.9,80.3c-0.4,0.4-0.8,0.8-1.2,1c-0.5,0.2-1,0.3-1.5,0.3c-0.9,0-1.6-0.3-2.1-0.9
				c-0.5-0.6-0.7-1.4-0.7-2.4v-5.2h2.2v4.7c0,0.8,0.1,1.3,0.4,1.6c0.2,0.3,0.6,0.5,1,0.5c0.6,0,1.1-0.3,1.4-0.8
				c0.3-0.5,0.5-1.2,0.5-2v-4h2.2v8.3h-2L148.9,80.3L148.9,80.3"/>
			<path id="Fill-69" class="st0" d="M155,80.1c0.4,0,0.7-0.1,1-0.2c0.3-0.2,0.4-0.4,0.4-0.8c0-0.3-0.1-0.5-0.4-0.7
				s-0.6-0.3-1.2-0.5c-0.8-0.2-1.3-0.5-1.7-0.8c-0.3-0.4-0.5-0.9-0.5-1.5c0-0.8,0.3-1.4,0.9-1.9c0.6-0.5,1.4-0.7,2.4-0.7
				c0.7,0,1.5,0.1,2.3,0.3l-0.1,1.6c-0.4-0.1-0.7-0.2-1-0.3c-0.3-0.1-0.6-0.1-0.9-0.1c-0.4,0-0.7,0.1-0.9,0.2
				c-0.2,0.2-0.4,0.4-0.4,0.7c0,0.2,0.1,0.4,0.3,0.5c0.2,0.1,0.6,0.3,1.1,0.4c0.8,0.2,1.4,0.5,1.8,0.9c0.4,0.4,0.6,0.9,0.6,1.6
				c0,0.9-0.3,1.5-1,2c-0.6,0.5-1.5,0.7-2.5,0.7c-0.7,0-1.5-0.1-2.4-0.4l0.1-1.8C153.6,79.9,154.3,80.1,155,80.1"/>
			<path id="Fill-70" class="st0" d="M163.7,81.6c-0.9,0-1.5-0.2-2-0.7c-0.5-0.5-0.7-1.1-0.7-2v-4.2h-1.6v-1.6h1.6v-1.7l2.2-0.7v2.3
				h1.9v1.6h-1.9v3.8c0,0.5,0.1,0.8,0.2,1c0.2,0.2,0.4,0.4,0.8,0.4c0.4,0,0.7-0.1,1-0.2l0.1,1.7C164.8,81.6,164.3,81.6,163.7,81.6"
				/>
			<path id="Fill-35" class="st1" d="M5.1,59c0.7,0,1.4-0.2,2-0.6c0.6-0.4,1-0.9,1-1.6c0-0.6-0.2-1-0.7-1.4
				c-0.5-0.3-1.2-0.7-2.1-1.1c-1-0.4-1.8-0.8-2.4-1.1c-0.6-0.3-1.1-0.8-1.5-1.5c-0.4-0.6-0.6-1.4-0.6-2.4c0-1.7,0.6-3,1.7-3.9
				c1.1-0.9,2.5-1.3,4.2-1.3c1.5,0,2.8,0.2,4,0.6l-0.3,2.8c-1.1-0.5-2.3-0.7-3.4-0.7c-0.7,0-1.3,0.2-1.9,0.6c-0.5,0.4-0.8,1-0.8,1.8
				c0,0.4,0.1,0.7,0.4,1s0.6,0.5,0.9,0.6c0.3,0.2,0.9,0.4,1.6,0.7c0.9,0.4,1.7,0.7,2.4,1.1c0.6,0.4,1.1,0.9,1.6,1.5
				c0.4,0.6,0.6,1.4,0.6,2.4c0,1.6-0.6,2.9-1.7,3.8c-1.1,0.9-2.7,1.3-4.7,1.3c-0.8,0-1.5,0-2-0.1C2.7,61.4,1.9,61.2,1,61l0.3-3
				C2.6,58.6,3.8,59,5.1,59"/>
			<polygon id="Fill-51" class="st1" points="216.9,61.3 220.2,61.3 220.2,43.2 216.9,43.2 			"/>
			<path id="Fill-52" class="st1" d="M226.3,59.3c0.5,0,1-0.1,1.5-0.4c0.4-0.2,0.7-0.6,0.7-1.2c0-0.4-0.2-0.8-0.5-1
				c-0.4-0.3-1-0.5-1.8-0.7c-1.2-0.3-2-0.7-2.5-1.3c-0.5-0.5-0.8-1.3-0.8-2.3c0-1.2,0.5-2.2,1.4-2.8c0.9-0.7,2.1-1,3.5-1
				c1,0,2.2,0.2,3.5,0.5l-0.2,2.4c-0.6-0.2-1.1-0.3-1.5-0.4s-0.9-0.1-1.4-0.1c-0.6,0-1,0.1-1.4,0.4c-0.4,0.2-0.5,0.6-0.5,1
				c0,0.3,0.2,0.6,0.5,0.8c0.3,0.2,0.9,0.4,1.7,0.6c1.2,0.3,2.1,0.8,2.6,1.4c0.6,0.6,0.8,1.4,0.8,2.4c0,1.3-0.5,2.3-1.5,3
				c-1,0.7-2.2,1-3.8,1c-1.1,0-2.3-0.2-3.6-0.5l0.2-2.7C224.2,59,225.2,59.3,226.3,59.3"/>
			<polyline id="Fill-53" class="st0" points="9,70.2 9,78.6 9,78.6 4.7,70.2 1.9,70.2 1.9,81.5 4.1,81.5 4.1,73.1 4.1,73.1 
				8.4,81.5 11.2,81.5 11.2,70.2 9,70.2 			"/>
		</g>
	</g>
</g>
</svg>
